# Exported from Wings 3D 1.5.2
mtllib wood-box-s5.mtl
o wood-box-s5
#32 vertices, 30 faces
v -1.00000000 0.0000000e+0 -1.00000000
v -1.00000000 0.0000000e+0 1.00000000
v -1.00000000 2.00000000 -1.00000000
v -1.00000000 2.00000000 1.00000000
v 1.00000000 0.0000000e+0 -1.00000000
v 1.00000000 0.0000000e+0 1.00000000
v 1.00000000 2.00000000 -1.00000000
v 1.00000000 2.00000000 1.00000000
v -0.87500000 2.00000000 -0.87500000
v -0.87500000 2.00000000 0.87500000
v 0.87500000 2.00000000 0.87500000
v 0.87500000 2.00000000 -0.87500000
v -0.87500000 0.0000000e+0 0.87500000
v -0.87500000 0.0000000e+0 -0.87500000
v 0.87500000 0.0000000e+0 -0.87500000
v 0.87500000 0.0000000e+0 0.87500000
v -0.87500000 1.87500000 1.00000000
v -0.87500000 0.12500000 1.00000000
v 0.87500000 0.12500000 1.00000000
v 0.87500000 1.87500000 1.00000000
v -0.87500000 0.12500000 -1.00000000
v -0.87500000 1.87500000 -1.00000000
v 0.87500000 1.87500000 -1.00000000
v 0.87500000 0.12500000 -1.00000000
v 1.00000000 0.12500000 0.87500000
v 1.00000000 0.12500000 -0.87500000
v 1.00000000 1.87500000 -0.87500000
v 1.00000000 1.87500000 0.87500000
v -1.00000000 0.12500000 -0.87500000
v -1.00000000 0.12500000 0.87500000
v -1.00000000 1.87500000 0.87500000
v -1.00000000 1.87500000 -0.87500000
vt 2.9333333e-2 2.9319037e-2
vt 2.9333333e-2 2.9322684e-2
vt 2.9333333e-2 0.97065237
vt 2.9333333e-2 0.97065602
vt 2.9347428e-2 2.9319037e-2
vt 2.9347428e-2 2.9322684e-2
vt 2.9347428e-2 2.9333333e-2
vt 2.9347428e-2 0.97065237
vt 2.9347428e-2 0.97065602
vt 2.9347428e-2 0.97066667
vt 2.9348513e-2 2.9332000e-2
vt 2.9348513e-2 0.97066533
vt 8.8166667e-2 8.8152371e-2
vt 8.8166667e-2 8.8156017e-2
vt 8.8166667e-2 0.91181904
vt 8.8166667e-2 0.91182268
vt 8.8180762e-2 8.8152371e-2
vt 8.8180762e-2 8.8156017e-2
vt 8.8180762e-2 8.8166667e-2
vt 8.8180762e-2 0.91181904
vt 8.8180762e-2 0.91182268
vt 8.8180762e-2 0.91183333
vt 8.8181846e-2 8.8165334e-2
vt 8.8181846e-2 0.91183200
vt 0.91183333 8.8152371e-2
vt 0.91183333 8.8156017e-2
vt 0.91183333 0.91181904
vt 0.91183333 0.91182268
vt 0.91184743 8.8152371e-2
vt 0.91184743 8.8156017e-2
vt 0.91184743 8.8166667e-2
vt 0.91184743 0.91181904
vt 0.91184743 0.91182268
vt 0.91184743 0.91183333
vt 0.91184851 8.8165334e-2
vt 0.91184851 0.91183200
vt 0.97066667 2.9319037e-2
vt 0.97066667 2.9322684e-2
vt 0.97066667 0.97065237
vt 0.97066667 0.97065602
vt 0.97068076 2.9319037e-2
vt 0.97068076 2.9322684e-2
vt 0.97068076 2.9333333e-2
vt 0.97068076 0.97065237
vt 0.97068076 0.97065602
vt 0.97068076 0.97066667
vt 0.97068185 2.9332000e-2
vt 0.97068185 0.97066533
vn -0.57735027 -0.57735027 -0.57735027
vn -0.57735027 -0.57735027 0.57735027
vn -0.57735027 0.57735027 -0.57735027
vn -0.57735027 0.57735027 0.57735027
vn 0.57735027 -0.57735027 -0.57735027
vn 0.57735027 -0.57735027 0.57735027
vn 0.57735027 0.57735027 -0.57735027
vn 0.57735027 0.57735027 0.57735027
vn 0.0000000e+0 1.00000000 0.0000000e+0
vn 0.0000000e+0 1.00000000 0.0000000e+0
vn 0.0000000e+0 1.00000000 0.0000000e+0
vn 0.0000000e+0 1.00000000 0.0000000e+0
vn 0.0000000e+0 -1.00000000 0.0000000e+0
vn 0.0000000e+0 -1.00000000 0.0000000e+0
vn 0.0000000e+0 -1.00000000 0.0000000e+0
vn 0.0000000e+0 -1.00000000 0.0000000e+0
vn 0.0000000e+0 0.0000000e+0 1.00000000
vn 0.0000000e+0 0.0000000e+0 1.00000000
vn 0.0000000e+0 0.0000000e+0 1.00000000
vn 0.0000000e+0 0.0000000e+0 1.00000000
vn 0.0000000e+0 0.0000000e+0 -1.00000000
vn 0.0000000e+0 0.0000000e+0 -1.00000000
vn 0.0000000e+0 0.0000000e+0 -1.00000000
vn 0.0000000e+0 0.0000000e+0 -1.00000000
vn 1.00000000 0.0000000e+0 0.0000000e+0
vn 1.00000000 0.0000000e+0 0.0000000e+0
vn 1.00000000 0.0000000e+0 0.0000000e+0
vn 1.00000000 0.0000000e+0 0.0000000e+0
vn -1.00000000 0.0000000e+0 0.0000000e+0
vn -1.00000000 0.0000000e+0 0.0000000e+0
vn -1.00000000 0.0000000e+0 0.0000000e+0
vn -1.00000000 0.0000000e+0 0.0000000e+0
g wood-box-s5_wood-box-s5
usemtl wood-box-s5
s 1
f 1/48/1 14/36/14 13/35/13 2/47/2
f 1/37/1 21/25/21 24/13/24 5/1/5
f 1/2/1 29/14/29 32/16/32 3/4/3
f 2/47/2 13/35/13 16/23/16 6/11/6
f 2/6/2 18/18/18 17/21/17 4/9/4
f 2/38/2 30/26/30 29/14/29 1/2/1
f 3/8/3 9/20/9 12/32/12 7/44/7
f 3/39/3 22/27/22 21/25/21 1/37/1
f 3/4/3 32/16/32 31/28/31 4/40/4
f 4/5/4 10/17/10 9/20/9 3/8/3
f 4/9/4 17/21/17 20/33/20 8/45/8
f 4/40/4 31/28/31 30/26/30 2/38/2
f 5/12/5 15/24/15 14/36/14 1/48/1
f 5/1/5 24/13/24 23/15/23 7/3/7
f 5/43/5 26/31/26 25/19/25 6/7/6
f 6/11/6 16/23/16 15/24/15 5/12/5
f 6/42/6 19/30/19 18/18/18 2/6/2
f 6/7/6 25/19/25 28/22/28 8/10/8
f 7/44/7 12/32/12 11/29/11 8/41/8
f 7/3/7 23/15/23 22/27/22 3/39/3
f 7/46/7 27/34/27 26/31/26 5/43/5
f 8/41/8 11/29/11 10/17/10 4/5/4
f 8/45/8 20/33/20 19/30/19 6/42/6
f 8/10/8 28/22/28 27/34/27 7/46/7
f 10/17/10 11/29/11 12/32/12 9/20/9
f 14/36/14 15/24/15 16/23/16 13/35/13
f 18/18/18 19/30/19 20/33/20 17/21/17
f 22/27/22 23/15/23 24/13/24 21/25/21
f 26/31/26 27/34/27 28/22/28 25/19/25
f 30/26/30 31/28/31 32/16/32 29/14/29
