# Exported from Wings 3D 1.4.1
mtllib tower.mtl
o tower
#65 vertices, 65 faces
v 1.00000000 0.0000000e+0 0.0000000e+0
v 0.98078528 0.0000000e+0 0.19509032
v 0.92387953 0.0000000e+0 0.38268343
v 0.83146961 0.0000000e+0 0.55557023
v 0.70710678 0.0000000e+0 0.70710678
v 0.55557023 0.0000000e+0 0.83146961
v 0.38268343 0.0000000e+0 0.92387953
v 0.19509032 0.0000000e+0 0.98078528
v 6.1232340e-17 0.0000000e+0 1.00000000
v -0.19509032 0.0000000e+0 0.98078528
v -0.38268343 0.0000000e+0 0.92387953
v -0.55557023 0.0000000e+0 0.83146961
v -0.70710678 0.0000000e+0 0.70710678
v -0.83146961 0.0000000e+0 0.55557023
v -0.92387953 0.0000000e+0 0.38268343
v -0.98078528 0.0000000e+0 0.19509032
v -1.00000000 0.0000000e+0 1.2246468e-16
v -0.98078528 0.0000000e+0 -0.19509032
v -0.92387953 0.0000000e+0 -0.38268343
v -0.83146961 0.0000000e+0 -0.55557023
v -0.70710678 0.0000000e+0 -0.70710678
v -0.55557023 0.0000000e+0 -0.83146961
v -0.38268343 0.0000000e+0 -0.92387953
v -0.19509032 0.0000000e+0 -0.98078528
v -1.8369702e-16 0.0000000e+0 -1.00000000
v 0.19509032 0.0000000e+0 -0.98078528
v 0.38268343 0.0000000e+0 -0.92387953
v 0.55557023 0.0000000e+0 -0.83146961
v 0.70710678 0.0000000e+0 -0.70710678
v 0.83146961 0.0000000e+0 -0.55557023
v 0.92387953 0.0000000e+0 -0.38268343
v 0.98078528 0.0000000e+0 -0.19509032
v 0.98078528 5.00481527 0.19509032
v 1.00000000 5.00481527 0.0000000e+0
v 0.98078528 5.00481527 -0.19509032
v 0.92387953 5.00481527 -0.38268343
v 0.83146961 5.00481527 -0.55557023
v 0.70710678 5.00481527 -0.70710678
v 0.55557023 5.00481527 -0.83146961
v 0.38268343 5.00481527 -0.92387953
v 0.19509032 5.00481527 -0.98078528
v -1.8369702e-16 5.00481527 -1.00000000
v -0.19509032 5.00481527 -0.98078528
v -0.38268343 5.00481527 -0.92387953
v -0.55557023 5.00481527 -0.83146961
v -0.70710678 5.00481527 -0.70710678
v -0.83146961 5.00481527 -0.55557023
v -0.92387953 5.00481527 -0.38268343
v -0.98078528 5.00481527 -0.19509032
v -1.00000000 5.00481527 1.2246468e-16
v -0.98078528 5.00481527 0.19509032
v -0.92387953 5.00481527 0.38268343
v -0.83146961 5.00481527 0.55557023
v -0.70710678 5.00481527 0.70710678
v -0.55557023 5.00481527 0.83146961
v -0.38268343 5.00481527 0.92387953
v -0.19509032 5.00481527 0.98078528
v 6.1232340e-17 5.00481527 1.00000000
v 0.19509032 5.00481527 0.98078528
v 0.38268343 5.00481527 0.92387953
v 0.55557023 5.00481527 0.83146961
v 0.70710678 5.00481527 0.70710678
v 0.83146961 5.00481527 0.55557023
v 0.92387953 5.00481527 0.38268343
v 1.0786091e-12 7.00000000 -1.9031062e-13
vt 9.1663815e-3 0.65751791
vt 9.1663815e-3 7.3131415e-3
vt 3.4634339e-2 0.65751791
vt 3.4634339e-2 7.3131415e-3
vt 6.0102297e-2 0.65751791
vt 6.0102297e-2 7.3131415e-3
vt 8.5570254e-2 0.65751791
vt 8.5570254e-2 7.3131415e-3
vt 0.11103821 0.65751791
vt 0.11103821 7.3131415e-3
vt 0.12525182 0.83241552
vt 0.12780427 0.80650006
vt 0.12780427 0.85833099
vt 0.13536353 0.88325053
vt 0.13536353 0.78158052
vt 0.13650617 0.65751791
vt 0.13650617 7.3131415e-3
vt 0.14763910 0.90621652
vt 0.14763910 0.75861453
vt 0.16197413 0.65751791
vt 0.16197413 7.3131415e-3
vt 0.16415925 0.92634637
vt 0.16415925 0.73848468
vt 0.18428910 0.72196453
vt 0.18428910 0.94286652
vt 0.18744208 0.65751791
vt 0.18744208 7.3131415e-3
vt 0.20725509 0.95514209
vt 0.20725509 0.70968896
vt 0.21291004 0.65751791
vt 0.21291004 7.3131415e-3
vt 0.23217463 0.96270135
vt 0.23217463 0.70212970
vt 0.23837800 0.65751791
vt 0.23837800 7.3131415e-3
vt 0.25809010 0.96525380
vt 0.25809010 0.69957724
vt 0.25809010 0.83241552
vt 0.26384596 0.65751791
vt 0.26384596 7.3131415e-3
vt 0.28400556 0.70212970
vt 0.28400556 0.96270135
vt 0.28931392 0.65751791
vt 0.28931392 7.3131415e-3
vt 0.30892511 0.70968896
vt 0.30892511 0.95514209
vt 0.31478187 7.3131415e-3
vt 0.31478187 0.65751791
vt 0.33189109 0.94286652
vt 0.33189109 0.72196453
vt 0.34024983 0.65751791
vt 0.34024983 7.3131415e-3
vt 0.35202095 0.73848468
vt 0.35202095 0.92634637
vt 0.36571779 0.65751791
vt 0.36571779 7.3131415e-3
vt 0.36854109 0.75861453
vt 0.36854109 0.90621652
vt 0.38081666 0.78158052
vt 0.38081666 0.88325053
vt 0.38837593 0.80650006
vt 0.38837593 0.85833099
vt 0.39092838 0.83241552
vt 0.39118575 0.65751791
vt 0.39118575 7.3131415e-3
vt 0.41665370 7.3131415e-3
vt 0.41665370 0.65751791
vt 0.44212166 7.3131415e-3
vt 0.44212166 0.65751791
vt 0.46758962 0.65751791
vt 0.46758962 7.3131415e-3
vt 0.49305758 0.65751791
vt 0.49305758 7.3131415e-3
vt 0.51007886 0.82221333
vt 0.51263131 0.79629786
vt 0.51263131 0.84812879
vt 0.51852553 0.65751791
vt 0.51852553 7.3131415e-3
vt 0.52019057 0.77137832
vt 0.52019057 0.87304834
vt 0.53246615 0.74841233
vt 0.53246615 0.89601432
vt 0.54399349 0.65751791
vt 0.54399349 7.3131415e-3
vt 0.54898629 0.72828248
vt 0.54898629 0.91614417
vt 0.56911615 0.71176233
vt 0.56911615 0.93266432
vt 0.56946145 0.65751791
vt 0.56946145 7.3131415e-3
vt 0.59208213 0.69948676
vt 0.59208213 0.94493989
vt 0.59492941 0.65751791
vt 0.59492941 7.3131415e-3
vt 0.61700168 0.69192750
vt 0.61700168 0.95249916
vt 0.62039736 0.65751791
vt 0.62039736 7.3131415e-3
vt 0.64291714 0.68937505
vt 0.64291714 0.95505161
vt 0.64586532 0.65751791
vt 0.64586532 7.3131415e-3
vt 0.66883260 0.69192750
vt 0.66883260 0.95249916
vt 0.67133328 0.65751791
vt 0.67133328 7.3131415e-3
vt 0.69375215 0.69948676
vt 0.69375215 0.94493989
vt 0.69680124 0.65751791
vt 0.69680124 7.3131415e-3
vt 0.71671813 0.71176233
vt 0.71671813 0.93266432
vt 0.72226920 7.3131415e-3
vt 0.72226920 0.65751791
vt 0.73684799 0.72828248
vt 0.73684799 0.91614417
vt 0.74773715 0.65751791
vt 0.74773715 7.3131415e-3
vt 0.75336813 0.74841233
vt 0.75336813 0.89601432
vt 0.76564371 0.77137832
vt 0.76564371 0.87304834
vt 0.77320297 0.79629786
vt 0.77320297 0.84812879
vt 0.77320511 0.65751791
vt 0.77320511 7.3131415e-3
vt 0.77575542 0.82221333
vt 0.79867307 7.3131415e-3
vt 0.79867307 0.65751791
vt 0.82414103 0.65751791
vt 0.82414103 7.3131415e-3
vn 0.89356081 -0.44894218 -1.4329746e-16
vn 0.87639129 -0.44894218 0.17432507
vn 0.82554254 -0.44894218 0.34195092
vn 0.74296866 -0.44894218 0.49643579
vn 0.63184291 -0.44894218 0.63184291
vn 0.49643579 -0.44894218 0.74296866
vn 0.34195092 -0.44894218 0.82554254
vn 0.17432507 -0.44894218 0.87639129
vn -6.2303244e-18 -0.44894218 0.89356081
vn -0.17432507 -0.44894218 0.87639129
vn -0.34195092 -0.44894218 0.82554254
vn -0.49643579 -0.44894218 0.74296866
vn -0.63184291 -0.44894218 0.63184291
vn -0.74296866 -0.44894218 0.49643579
vn -0.82554254 -0.44894218 0.34195092
vn -0.87639129 -0.44894218 0.17432507
vn -0.89356081 -0.44894218 -6.2303244e-18
vn -0.87639129 -0.44894218 -0.17432507
vn -0.82554254 -0.44894218 -0.34195092
vn -0.74296866 -0.44894218 -0.49643579
vn -0.63184291 -0.44894218 -0.63184291
vn -0.49643579 -0.44894218 -0.74296866
vn -0.34195092 -0.44894218 -0.82554254
vn -0.17432507 -0.44894218 -0.87639129
vn -2.5544330e-16 -0.44894218 -0.89356081
vn 0.17432507 -0.44894218 -0.87639129
vn 0.34195092 -0.44894218 -0.82554254
vn 0.49643579 -0.44894218 -0.74296866
vn 0.63184291 -0.44894218 -0.63184291
vn 0.74296866 -0.44894218 -0.49643579
vn 0.82554254 -0.44894218 -0.34195092
vn 0.87639129 -0.44894218 -0.17432507
vn 0.95441367 0.23033357 0.18984468
vn 0.97311173 0.23033357 8.4505393e-16
vn 0.95441367 0.23033357 -0.18984468
vn 0.89903801 0.23033357 -0.37239374
vn 0.80911284 0.23033357 -0.54063191
vn 0.68809391 0.23033357 -0.68809391
vn 0.54063191 0.23033357 -0.80911284
vn 0.37239374 0.23033357 -0.89903801
vn 0.18984468 0.23033357 -0.95441367
vn 6.9466297e-16 0.23033357 -0.97311173
vn -0.18984468 0.23033357 -0.95441367
vn -0.37239374 0.23033357 -0.89903801
vn -0.54063191 0.23033357 -0.80911284
vn -0.68809391 0.23033357 -0.68809391
vn -0.80911284 0.23033357 -0.54063191
vn -0.89903801 0.23033357 -0.37239374
vn -0.95441367 0.23033357 -0.18984468
vn -0.97311173 0.23033357 -1.7187538e-16
vn -0.95441367 0.23033357 0.18984468
vn -0.89903801 0.23033357 0.37239374
vn -0.80911284 0.23033357 0.54063191
vn -0.68809391 0.23033357 0.68809391
vn -0.54063191 0.23033357 0.80911284
vn -0.37239374 0.23033357 0.89903801
vn -0.18984468 0.23033357 0.95441367
vn 9.4889530e-16 0.23033357 0.97311173
vn 0.18984468 0.23033357 0.95441367
vn 0.37239374 0.23033357 0.89903801
vn 0.54063191 0.23033357 0.80911284
vn 0.68809391 0.23033357 0.68809391
vn 0.80911284 0.23033357 0.54063191
vn 0.89903801 0.23033357 0.37239374
vn 2.1642191e-13 1.00000000 -3.7970801e-14
g tower_tower_auv
usemtl tower_auv
s 1
f 1/97/1 32/93/32 35/94/35 34/98/34
f 2/75/2 3/79/3 4/81/4 5/85/5 6/87/6 7/91/7 8/95/8 9/99/9 10/103/10 11/107/11 12/111/12 13/115/13 14/119/14 15/121/15 16/123/16 17/127/17 18/124/18 19/122/19 20/120/20 21/116/21 22/112/22 23/108/23 24/104/24 25/100/25 26/96/26 27/92/27 28/88/28 29/86/29 30/82/30 31/80/31 32/76/32 1/74/1
f 2/101/2 33/102/33 64/106/64 3/105/3
f 3/105/3 64/106/64 63/110/63 4/109/4
f 4/109/4 63/110/63 62/113/62 5/114/5
f 5/114/5 62/113/62 61/118/61 6/117/6
f 6/117/6 61/118/61 60/126/60 7/125/7
f 7/125/7 60/126/60 59/128/59 8/129/8
f 8/129/8 59/128/59 58/131/58 9/130/9
f 9/1/9 58/2/58 57/4/57 10/3/10
f 10/3/10 57/4/57 56/6/56 11/5/11
f 11/5/11 56/6/56 55/8/55 12/7/12
f 12/7/12 55/8/55 54/10/54 13/9/13
f 13/9/13 54/10/54 53/17/53 14/16/14
f 14/16/14 53/17/53 52/21/52 15/20/15
f 15/20/15 52/21/52 51/27/51 16/26/16
f 16/26/16 51/27/51 50/31/50 17/30/17
f 17/30/17 50/31/50 49/35/49 18/34/18
f 18/34/18 49/35/49 48/40/48 19/39/19
f 19/39/19 48/40/48 47/44/47 20/43/20
f 20/43/20 47/44/47 46/47/46 21/48/21
f 21/48/21 46/47/46 45/52/45 22/51/22
f 22/51/22 45/52/45 44/56/44 23/55/23
f 23/55/23 44/56/44 43/65/43 24/64/24
f 24/64/24 43/65/43 42/66/42 25/67/25
f 25/67/25 42/66/42 41/68/41 26/69/26
f 26/69/26 41/68/41 40/71/40 27/70/27
f 27/70/27 40/71/40 39/73/39 28/72/28
f 28/72/28 39/73/39 38/78/38 29/77/29
f 29/77/29 38/78/38 37/84/37 30/83/30
f 30/83/30 37/84/37 36/90/36 31/89/31
f 32/93/32 31/89/31 36/90/36 35/94/35
f 34/98/34 33/102/33 2/101/2 1/97/1
f 34/63/34 35/62/35 65/38/65
f 35/62/35 36/60/36 65/38/65
f 36/60/36 37/58/37 65/38/65
f 37/58/37 38/54/38 65/38/65
f 38/54/38 39/49/39 65/38/65
f 39/49/39 40/46/40 65/38/65
f 40/46/40 41/42/41 65/38/65
f 41/42/41 42/36/42 65/38/65
f 42/36/42 43/32/43 65/38/65
f 43/32/43 44/28/44 65/38/65
f 44/28/44 45/25/45 65/38/65
f 45/25/45 46/22/46 65/38/65
f 46/22/46 47/18/47 65/38/65
f 47/18/47 48/14/48 65/38/65
f 48/14/48 49/13/49 65/38/65
f 49/13/49 50/11/50 65/38/65
f 50/11/50 51/12/51 65/38/65
f 51/12/51 52/15/52 65/38/65
f 52/15/52 53/19/53 65/38/65
f 53/19/53 54/23/54 65/38/65
f 54/23/54 55/24/55 65/38/65
f 55/24/55 56/29/56 65/38/65
f 56/29/56 57/33/57 65/38/65
f 57/33/57 58/37/58 65/38/65
f 58/37/58 59/41/59 65/38/65
f 59/41/59 60/45/60 65/38/65
f 60/45/60 61/50/61 65/38/65
f 61/50/61 62/53/62 65/38/65
f 62/53/62 63/57/63 65/38/65
f 63/57/63 64/59/64 65/38/65
f 64/59/64 33/61/33 65/38/65
f 65/38/65 33/61/33 34/63/34
