# Exported from Wings 3D 1.5.2
mtllib metal-bar.mtl
o metal-bar
#8 vertices, 6 faces
v 2.50000000 -1.6653345e-16 -0.12500000
v 2.50000000 -1.6653345e-16 0.12500000
v -2.50000000 1.5265567e-16 -0.12500000
v -2.50000000 1.5265567e-16 0.12500000
v 2.50000000 0.25000000 -0.12500000
v 2.50000000 0.25000000 0.12500000
v -2.50000000 0.25000000 -0.12500000
v -2.50000000 0.25000000 0.12500000
vt 0.19495584 5.0000000e-3
vt 0.19495584 0.99500000
vt 0.24445584 5.0000000e-3
vt 0.24445584 0.99500000
vt 0.29395584 5.0000000e-3
vt 0.29395584 0.99500000
vt 0.34345584 5.0000000e-3
vt 0.34345584 0.99500000
vt 0.39295584 5.0000000e-3
vt 0.39295584 0.99500000
vt 0.91232512 5.4845440e-2
vt 0.91232512 0.10484544
vt 0.91232512 0.10484544
vt 0.91232512 0.15484544
vt 0.96232512 5.4845440e-2
vt 0.96232512 0.10484544
vt 0.96232512 0.15484544
vn 0.57735027 -0.57735027 -0.57735027
vn 0.57735027 -0.57735027 0.57735027
vn -0.57735027 -0.57735027 -0.57735027
vn -0.57735027 -0.57735027 0.57735027
vn 0.57735027 0.57735027 -0.57735027
vn 0.57735027 0.57735027 0.57735027
vn -0.57735027 0.57735027 -0.57735027
vn -0.57735027 0.57735027 0.57735027
g metal-bar_metal-bar
usemtl metal-bar
s 1
f 1/17/1 5/14/5 6/13/6 2/16/2
f 2/4/2 4/3/4 3/5/3 1/6/1
f 2/4/2 6/2/6 8/1/8 4/3/4
f 3/5/3 7/7/7 5/8/5 1/6/1
f 4/11/4 8/15/8 7/16/7 3/12/3
f 5/8/5 7/7/7 8/9/8 6/10/6
